<?xml version="1.0"?>
<svg xmlns="http://www.w3.org/2000/svg" height="512px" viewBox="-36 0 512 512.00024" width="512px" class=""><g><path d="m404.304688 0h-367.761719c-20.097657 0-36.542969 16.445312-36.542969 36.542969v337.816406c0 20.097656 16.445312 36.542969 36.542969 36.542969h208.421875c4.542968 0 8.226562 3.683594 8.226562 8.226562v84.628906c0 7.328126 8.859375 11 14.042969 5.816407l96.265625-96.265625c1.539062-1.542969 3.632812-2.40625 5.816406-2.40625h34.988282c20.097656 0 36.542968-16.445313 36.542968-36.542969v-337.816406c0-20.097657-16.445312-36.542969-36.542968-36.542969zm0 0" fill="#ff6b6b" data-original="#FF6B6B" class="" style="fill:#A2D147" data-old_color="#a2d147"/><path d="m30.90625 374.359375v-337.816406c0-20.097657 16.445312-36.542969 36.542969-36.542969h-30.90625c-20.097657 0-36.542969 16.445312-36.542969 36.542969v337.816406c0 20.097656 16.445312 36.542969 36.542969 36.542969h30.90625c-20.097657 0-36.542969-16.445313-36.542969-36.542969zm0 0" fill="#ee5253" data-original="#EE5253" class="" style="fill:#56A102" data-old_color="#56a102"/><path d="m284.097656 419.128906c0-4.542968-3.683594-8.226562-8.226562-8.226562h-30.90625c4.542968 0 8.226562 3.683594 8.226562 8.226562v84.628906c0 7.328126 8.859375 11 14.042969 5.816407l16.863281-16.863281zm0 0" fill="#ee5253" data-original="#EE5253" class="" style="fill:#56A102" data-old_color="#56a102"/><path d="m251.972656 200.472656c-18.675781 14.601563-19.015625 24.789063-19.015625 42.445313 0 6.453125-3.394531 13.921875-20.03125 13.921875-13.921875 0-18.679687-5.09375-18.679687-22.75 0-29.203125 12.90625-43.125 22.753906-51.613282 11.207031-9.507812 30.222656-20.035156 30.222656-38.371093 0-15.621094-13.585937-23.09375-30.5625-23.09375-34.636718 0-27.167968 26.148437-45.503906 26.148437-9.167969 0-20.375-6.113281-20.375-19.355468 0-18.335938 21.054688-45.503907 66.898438-45.503907 70.46875 0 103.324218 64.484375 34.292968 118.171875zm0 0" fill="#feca57" data-original="#FECA57" class="active-path" style="fill:#56A102" data-old_color="#DE7E68"/><path d="m239.410156 306.417969c0 13.921875-11.546875 26.148437-26.148437 26.148437-14.597657 0-25.804688-12.226562-25.804688-26.148437 0-14.261719 11.546875-26.144531 25.804688-26.144531 14.261719 0 26.148437 11.882812 26.148437 26.144531zm0 0" fill="#feca57" data-original="#FECA57" class="active-path" style="fill:#56A102" data-old_color="#DE7E68"/><g fill="#f4b537"><path d="m181.6875 127.804688c0-16.148438 16.335938-39.128907 51.535156-44.390626-4.941406-.726562-10.128906-1.113281-15.542968-1.113281-45.84375 0-66.898438 27.167969-66.898438 45.503907 0 13.242187 11.207031 19.355468 20.375 19.355468 7.085938 0 10.320312-3.90625 13.617188-8.699218-1.902344-2.828126-3.085938-6.367188-3.085938-10.65625zm0 0" data-original="#3c7200" class="" style="fill:#3c7200"/><path d="m225.152344 234.089844c0-29.203125 12.90625-43.125 22.753906-51.613282 11.207031-9.507812 30.222656-20.035156 30.222656-38.371093 0-15.621094-13.582031-23.089844-30.5625-23.089844-6.558594 0-11.605468.9375-15.609375 2.457031 9.148438 3.351563 15.265625 10.15625 15.265625 20.632813 0 18.335937-19.015625 28.863281-30.222656 38.371093-9.847656 8.488282-22.753906 22.410157-22.753906 51.613282 0 17.65625 4.757812 22.753906 18.679687 22.753906 8.46875 0 13.5-1.9375 16.40625-4.691406-2.972656-3.472656-4.179687-9.175782-4.179687-18.0625zm0 0" data-original="#3c7200" class="" style="fill:#3c7200"/><path d="m218.363281 306.417969c0-8.488281 4.09375-16.136719 10.414063-20.9375-4.363282-3.261719-9.742188-5.207031-15.515625-5.207031-14.257813 0-25.804688 11.882812-25.804688 26.144531 0 13.921875 11.207031 26.148437 25.804688 26.148437 5.84375 0 11.195312-1.960937 15.515625-5.203125-6.378906-4.855469-10.414063-12.59375-10.414063-20.945312zm0 0" data-original="#3c7200" class="" style="fill:#3c7200"/></g></g> </svg>