<svg viewBox="0 0 512 512" xmlns="http://www.w3.org/2000/svg" fill-rule="evenodd" clip-rule="evenodd" stroke-linejoin="round" stroke-miterlimit="1.414"><path d="M440.305 0H72.543C52.445 0 36 16.445 36 36.543v337.816c0 20.098 16.445 36.543 36.543 36.543h208.422c4.513.001 8.226 3.714 8.226 8.227v84.629c0 7.328 8.86 11 14.043 5.816L399.5 413.31a8.215 8.215 0 0 1 5.816-2.407h34.989c20.097 0 36.543-16.445 36.543-36.543V36.543C476.848 16.445 460.402 0 440.305 0z" fill="#a2d147" fill-rule="nonzero"/><path d="M66.906 374.36V36.542C66.906 16.445 83.352 0 103.45 0H72.543C52.445 0 36 16.445 36 36.543v337.816c0 20.098 16.445 36.543 36.543 36.543h30.906c-20.097 0-36.543-16.445-36.543-36.543v.001zm253.192 44.769c0-4.513-3.714-8.227-8.227-8.227h-30.906c4.513.001 8.226 3.714 8.226 8.227v84.629c0 7.328 8.86 11 14.043 5.816l16.864-16.863v-73.582zm-32.125-218.656c-18.676 14.601-19.016 24.789-19.016 42.445 0 6.453-3.394 13.922-20.031 13.922-13.922 0-18.68-5.094-18.68-22.75 0-29.203 12.906-43.125 22.754-51.613 11.207-9.508 30.223-20.036 30.223-38.372 0-15.62-13.586-23.093-30.563-23.093-34.637 0-27.168 26.148-45.504 26.148-9.168 0-20.375-6.113-20.375-19.355 0-18.336 21.055-45.504 66.899-45.504 70.468 0 103.324 64.484 34.293 118.172zM275.41 306.418c0 13.922-11.547 26.148-26.148 26.148-14.598 0-25.805-12.226-25.805-26.148 0-14.262 11.547-26.145 25.805-26.145 14.261 0 26.148 11.883 26.148 26.145z" fill="#56a102" fill-rule="nonzero"/><path d="M217.688 127.805c0-16.149 16.335-39.13 51.535-44.39A106.797 106.797 0 0 0 253.68 82.3c-45.844 0-66.899 27.168-66.899 45.504 0 13.242 11.207 19.355 20.375 19.355 7.086 0 10.32-3.906 13.617-8.7-1.902-2.827-3.085-6.366-3.085-10.655v.001zm43.464 106.285c0-29.203 12.907-43.125 22.754-51.613 11.207-9.508 30.223-20.036 30.223-38.372 0-15.62-13.582-23.09-30.563-23.09-6.558 0-11.605.938-15.609 2.458 9.148 3.351 15.266 10.156 15.266 20.632 0 18.336-19.016 28.864-30.223 38.372-9.848 8.488-22.754 22.41-22.754 51.613 0 17.656 4.758 22.754 18.68 22.754 8.469 0 13.5-1.938 16.406-4.692-2.973-3.472-4.18-9.175-4.18-18.062zm-6.789 72.328c0-8.488 4.094-16.137 10.414-20.938-4.363-3.261-9.742-5.207-15.515-5.207-14.258 0-25.805 11.883-25.805 26.145 0 13.922 11.207 26.148 25.805 26.148 5.843 0 11.195-1.96 15.515-5.203-6.379-4.855-10.414-12.593-10.414-20.945z" fill="#3c7200" fill-rule="nonzero"/><path d="M267 123s35.289-.046 42 20c6.711 20.046-10.936 26.583-13 30-2.064 3.417 32.62-8.045 23-39-9.62-30.955-55.245-26.501-55-20 .245 6.501 3 9 3 9" fill="#56a102"/><path d="M290 178s48.878-46.951-24-56c0 0 50.539-8.581 50 21-.539 29.581-16.189 36.308-26 35z" fill="#56a102"/></svg>