<?xml version="1.0" encoding="UTF-8" standalone="no"?>
<!DOCTYPE svg PUBLIC "-//W3C//DTD SVG 1.1//EN" "http://www.w3.org/Graphics/SVG/1.1/DTD/svg11.dtd">
<svg width="100%" height="100%" viewBox="0 0 338 240" version="1.1" xmlns="http://www.w3.org/2000/svg" xmlns:xlink="http://www.w3.org/1999/xlink" xml:space="preserve" xmlns:serif="http://www.serif.com/" style="fill-rule:evenodd;clip-rule:evenodd;stroke-linejoin:round;stroke-miterlimit:1.41421;">
    <g transform="matrix(1,0,0,1,-126,-168)">
        <path d="M448,184L240,184C231.176,184.027 224.027,191.176 224,200L224,344C224.027,352.824 231.176,359.973 240,360L288,360L288,408L336,360L448,360C456.824,359.973 463.973,352.824 464,344L464,200C463.973,191.176 456.824,184.027 448,184Z" style="fill:rgb(162,209,71);fill-rule:nonzero;"/>
    </g>
    <g transform="matrix(1,0,0,1,-79,-168)">
        <path d="M112,168C112.058,167.887 144,216 144,216L80,216C80,216 111.942,168.113 112,168Z" style="fill:rgb(188,190,192);fill-rule:nonzero;"/>
    </g>
    <g transform="matrix(1,0,0,1,-79,-168)">
        <path d="M144,360L144,376C144,393.672 129.672,408 112,408C94.328,408 80,393.672 80,376L80,360L144,360Z" style="fill:rgb(230,231,232);fill-rule:nonzero;"/>
    </g>
    <g transform="matrix(1,0,0,1,-79,-168)">
        <rect x="80" y="336" width="64" height="24" style="fill:rgb(255,152,17);fill-rule:nonzero;"/>
    </g>
    <g transform="matrix(1,0,0,1,-79,-168)">
        <rect x="112" y="216" width="32" height="120" style="fill:rgb(0,179,157);fill-rule:nonzero;"/>
    </g>
    <g transform="matrix(1,0,0,1,-79,-168)">
        <rect x="80" y="216" width="32" height="120" style="fill:rgb(0,204,179);fill-rule:nonzero;"/>
    </g>
    <g transform="matrix(1,0,0,1,-126,-168)">
        <rect x="264" y="224" width="160" height="16" style="fill:rgb(83,160,0);fill-rule:nonzero;"/>
    </g>
    <g transform="matrix(1,0,0,1,-126,-168)">
        <rect x="264" y="264" width="160" height="16" style="fill:rgb(83,160,0);fill-rule:nonzero;"/>
    </g>
    <g transform="matrix(1,0,0,1,-126,-168)">
        <rect x="264" y="304" width="160" height="16" style="fill:rgb(83,160,0);fill-rule:nonzero;"/>
    </g>
</svg>
