<svg height="682.666" viewBox="1 0 512 512" width="682.666" xmlns="http://www.w3.org/2000/svg"><path d="M496.941 0h-150.59C171.572 0 30.118 141.438 30.118 316.234v150.59c0 8.317 6.742 15.059 15.059 15.059h150.59C370.546 481.883 512 340.445 512 165.648V15.058C512 6.743 505.258 0 496.941 0zm0 0" fill="#a2d147"/><path d="M512 15.059v150.59c0 174.8-141.453 316.234-316.234 316.234H45.176a14.97 14.97 0 0 1-10.64-4.418L507.581 4.418A14.97 14.97 0 0 1 512 15.058zm0 0" fill="#7dbf06"/><path d="M405.844 180.707H352.59l64.644-64.644c5.883-5.883 5.883-15.418 0-21.297-5.879-5.883-15.414-5.88-21.293 0l-64.648 64.644v-53.25c0-8.316-6.742-15.058-15.059-15.058s-15.058 6.742-15.058 15.058v83.367l-60.235 60.239v-84.637c0-8.316-6.742-15.059-15.058-15.059-8.317 0-15.059 6.743-15.059 15.059v114.754l-60.238 60.234V225.883c0-8.317-6.738-15.059-15.059-15.059-8.316 0-15.058 6.742-15.058 15.059v144.351L4.41 486.293c-5.879 5.879-5.879 15.418 0 21.297 5.883 5.879 15.418 5.879 21.297 0l116.059-116.063h144.351c8.317 0 15.059-6.742 15.059-15.058s-6.742-15.059-15.059-15.059H171.883l60.234-60.234h114.235c8.316 0 15.058-6.742 15.058-15.059 0-8.316-6.742-15.058-15.058-15.058h-84.114l60.235-60.235h83.37c8.317 0 15.06-6.742 15.06-15.058s-6.743-15.059-15.06-15.059zm0 0" fill="#84b721"/><path d="M420.902 195.766c0 8.312-6.746 15.058-15.058 15.058h-83.375l-60.235 60.235h84.121c8.313 0 15.06 6.746 15.06 15.058s-6.747 15.059-15.06 15.059H232.117l-60.234 60.234h114.234c8.313 0 15.059 6.746 15.059 15.063 0 8.312-6.746 15.058-15.059 15.058H141.766l-90.344 90.352-25.711 25.71c-5.883 5.872-15.422 5.872-21.305 0l412.832-412.83c5.875 5.883 5.875 15.418 0 21.3l-64.652 64.645h53.258c8.312 0 15.058 6.746 15.058 15.059zm0 0" fill="#53a000"/></svg>