<svg viewBox="0 0 1670 1409" xmlns="http://www.w3.org/2000/svg" fill-rule="evenodd" clip-rule="evenodd" stroke-linejoin="round" stroke-miterlimit="1.414"><path d="M385 1363c4.964 152.56-8 2-8 2 .685-25.82-7.25-196.49-8-306-.75-109.506 13.424-285.271 19-289 0 0-14.082-73.146-15-83-.918-9.854-31.946-65.022-30-74 1.946-8.978-56.6 29.047-183-34 0 0-38.55-14.983-70 26 0 0-13.493 10.283-31-29l-15-4s1.203-11.978 6-9c4.797 2.978 31.427 8.031 42 5 10.573-3.031 1.784-44.846 5-45 3.216-.154-5.675-12.445 11-6 0 0-8.539 22.014 34-55 0 0 18.576-20.75 61-27s41.572-.55 58 0c16.428.55 8.777-7.931 35-5s35.677 2.977 47-2 14.225-9.574 22 0c0 0 1.205 4.343 56-1 0 0 16.702 15.511 34-2 0 0 52.657-23.029 64 5 0 0 4.69 9.323 21 1 0 0 20.545-2.113 26 1 5.455 3.113 7.597-5.76 13-9s33.478 29.563 31 49c0 0-7.89 8.41-6 16 1.89 7.59-13.078 12.423-51 17l-59 24s4.074 18.931-63 32c0 0-68.947 39.763-75 45-6.053 5.237 8.516 42.71 17 51 0 0 15.132 22.817 27 111 0 0-21.567 118.074-19 290 2.567 171.93-.964 152.44 4 305z" fill="url(#_Linear1)"/><path d="M813 1407c-5.773-4.34-44.785-315.87-37-433l-4-146s-7.107-40.805-5-64l-5-81s-66.397 18.676-172-6c0 0-58.499 3.859-107 36 0 0-5.142 4.109-8-9 0 0-8.163-10.678-5-16 0 0 10.563-1.724 13-5 0 0 5.839-27.811 4-31-1.839-3.189 14.259-15.211 12-20 0 0 2.894-2.004-5-19 0 0-1.386-4.838 28-23 0 0 6.013-5.147 8-13s5.639-21.827 31-26c0 0 4.822 1.661 24-16 0 0 6.356-2.743 23 0 0 0 5.209 3.985 20-12 0 0 6.986-3.673 42 0 0 0 21.507.125 49-32 0 0 4.758-4.119 15-1 0 0 17.332 8.356 42-1 0 0 2.613-4.019 17-4 0 0 8.957-1.203 10 8 0 0-1.923 7.716 14 0s38.961-22.06 36-11h8s1.829-1.29 12 9l36-2s5.423-3.38-7-5-45.301-10.128-48.328-12.552L842 470s-28.503-13.34-42-14l-15-6-52-15s-96.774-4.464-104 2c-7.226 6.464-15.742-44.256 9-41 0 0 9.438-20.36 49-16 0 0 11.949-22.123 63-10 51.051 12.123 61.084-27.858 61-28-.084-.142-3.489-20.398 64-18 0 0 28.121 4.252 50-26l33-4s5.091-32.9 61-18c0 0 16.27 13.582 40-18 0 0 37.83-19.685 54 6 0 0 9.81 18.625 20 9s43.08 36.706 34 60c-9.08 23.294 9.82-39.98-93 20 0 0-103.222 103.903-120 117 0 0 3.768 16.082 14 13 10.232-3.082 17.298 11.079 20 5 0 0 1.845 3.134 4 10l-10 8 7 14s.27 33.155-16 39c0 0 12.77 73.916 11 107-1.77 33.084-5 72-5 72l-1 32s-49.246 198.636 17 599l-12 3s-66.359-347.79-17-603c0 0 11.615-205.754-8-201-19.615 4.754-149.888 97.903-183 108 0 0 .722 128.001 9 138 0 0 4.137 496.25 40 588 0 0-5.227 9.34-11 5z" fill="url(#_Linear2)"/><path d="M1145 1352s-27.54-482.447 12-582c0 0 .67-285.197 5-294 0 0-32.94-48.403-47-50 0 0-13.16-8.353-9-14 0 0-30.39-20.847-20-21l17-3 3 7s10.94-1.506 28-2c0 0 8.23 4.249 27 27 8.18 9.922 24-124 24-124-22.44-15.339-67.92-147.45-198-204 0 0-31.9-12.467 5-51 0 0 3.192 18.649 27-4 0 0 14.71 16.393 19 5 0 0 4.75 31.128 32 3 0 0 29.73-34.561 53 12 0 0 7.65 6.587 19-3 0 0 25.88-6.252 55 15 0 0 16.14 7.368 28-1 0 0 46.12 24.763 66 34 0 0-2.78 39.091 24 47 0 0 11.58 10.59 30 19 0 0 16.44 34.27 35.56 22.004 0 0 14.54 39.726 43.44 29.996l13 1s-5.82 29.376 39 30c0 0-4.06 20.146 33 18 0 0 6.24 26.883 17 22 0 0 7.97 6.136 7 56 0 0-9.54 12.3-27-4 0 0-7.28-3.256-20 8 0 0-16.76 15.831-43-20 0 0-15.52-8.905-58-14 0 0-94.11 9.631-174-8 0 0-10.96-4.157-13 6-2.04 10.157-15.34 84.265-14 95 0 0-1.27 24.305 14-2 0 0 12.9-12.048 44 0 0 0 23.26 4.847 32-13 0 0 15.74-16.085 59-11 0 0 25.96 24.403 31 15 0 0-2.01 16.446 22-8 0 0 32.92-7.613 51 2 0 0 17.06-2.156 23 7 5.94 9.156 12.52 5.13 21 5 8.48-.13 17.72 28.89 29 37 11.28 8.11 17.29 6.338 33-8 15.71-14.338 28.25 28.433 35 34s16.6 25.266 36 0c0 0 17.98 5.664 22 20s-3 33.62 5 40c8 6.38-2.62 11.924-20 14-17.38 2.076-12.3 10.494-10 17 0 0-27.8 13.913-29 23-1.2 9.087 3.22 31.841-22 17 0 0-57.99-41.417-160 6 0 0-56.1 12.226-71 11 0 0-5.44 35.533-6 57-.56 21.467-8.22 86.063-7 99 0 0-15.68 71.312-14 95l-7 135-6 176s-9.78 161.15-16 173l-10-3 14-170 4-176 7-136s8.54-84.968 14-95c0 0 12.26-156.563 9-166 0 0-56.92-32.849-66-58 0 0-17.1-2.12-27-1-9.9 1.12-18-25-18-25s-24.19-16.982-23-27c1.19-10.018-14.76 92.263-4 260l-3 27s-33.37 113.986-15 568l-10 3z" fill="url(#_Linear3)"/><defs><linearGradient id="_Linear1" x1="0" y1="0" x2="1" y2="0" gradientUnits="userSpaceOnUse" gradientTransform="matrix(79 374 -374 79 252 428)"><stop offset="0" stop-color="#99c74a"/><stop offset="1" stop-color="#5f8028"/></linearGradient><linearGradient id="_Linear2" x1="0" y1="0" x2="1" y2="0" gradientUnits="userSpaceOnUse" gradientTransform="matrix(39 500 -500 39 746 370)"><stop offset="0" stop-color="#99c74a"/><stop offset="1" stop-color="#5f8028"/></linearGradient><linearGradient id="_Linear3" x1="0" y1="0" x2="1" y2="0" gradientUnits="userSpaceOnUse" gradientTransform="matrix(-65 871 -871 -65 1183 277)"><stop offset="0" stop-color="#99c74a"/><stop offset="1" stop-color="#5f8028"/></linearGradient></defs></svg>