<svg viewBox="0 0 2845 2845" xmlns="http://www.w3.org/2000/svg" fill="#2c3e50" fill-rule="evenodd" clip-rule="evenodd" stroke-linejoin="round" stroke-miterlimit="1.414"><path d="M2286.102 2844.447c-118.35 0-261.284-29.661-418.473-88.978-344.617-129.922-719.556-386.706-1055.75-722.9-336.29-336.29-593.073-711.33-723.096-1055.94-118.155-313.328-118.444-570.5-.666-688.173 16.933-16.94 34.155-35.117 51.95-53.867C247.506 121.6 368.91-5.55 529.834.19c110.889 4.594 218.328 73.478 328.35 210.389 325.095 404.311 178.528 548.395 8.9 715.44l-29.95 29.655c-27.744 27.75-80.172 156.233 407.567 643.973 159.2 159.2 294.961 275.733 403.456 346.244 68.305 44.39 190.483 111.55 240.617 61.423l30.133-30.428c166.856-169.245 310.94-315.334 714.962 9.472 136.911 110.022 205.7 217.367 210.289 328.445 6.605 160.828-121.5 282.522-234.59 389.867-18.655 17.794-36.833 35.017-53.766 51.855-58.456 58.55-151.928 87.923-269.7 87.923z" fill-rule="nonzero"/></svg>