<svg viewBox="0 0 2845 2845" xmlns="http://www.w3.org/2000/svg" fill-rule="evenodd" clip-rule="evenodd" stroke-linejoin="round" stroke-miterlimit="1.414"><path d="M2286.102 2844.447c-118.35 0-261.284-29.661-418.473-88.978-344.617-129.922-719.556-386.706-1055.75-722.9-336.29-336.29-593.073-711.33-723.096-1055.94-118.155-313.328-118.444-570.5-.666-688.173 16.933-16.94 34.155-35.117 51.95-53.867C247.506 121.6 368.91-5.55 529.834.19c110.889 4.594 218.328 73.478 328.35 210.389 325.095 404.311 178.528 548.395 8.9 715.44l-29.95 29.655c-27.744 27.75-80.172 156.233 407.567 643.973 159.2 159.2 294.961 275.733 403.456 346.244 68.305 44.39 190.483 111.55 240.617 61.423l30.133-30.428c166.856-169.245 310.94-315.334 714.962 9.472 136.911 110.022 205.7 217.367 210.289 328.445 6.605 160.828-121.5 282.522-234.59 389.867-18.655 17.794-36.833 35.017-53.766 51.855-58.456 58.55-151.928 87.923-269.7 87.923zM518.356 95.672c-114.328 0-217.561 108.684-308.928 204.834-18.367 19.328-36.167 38.078-53.672 55.589-87.734 87.633-78.834 317.922 22.577 586.856 125.334 332.178 374.367 695.156 701.284 1022.073 326.817 326.722 689.606 575.756 1021.879 700.995 268.934 101.6 499.223 110.211 586.762 22.672 17.505-17.506 36.26-35.306 55.583-53.578 98.256-93.378 209.717-199.189 204.839-316.578-3.35-80.655-62.095-167.428-174.606-257.839-336.672-270.756-430.811-175.178-586.95-16.839l-30.617 30.9c-74.622 74.722-195.839 58.172-360.4-48.789-114.134-74.244-255.156-194.983-418.95-358.872-404.79-404.695-534.234-652.39-407.567-779.35l30.522-30.134c158.722-156.14 254.489-250.378-16.361-587.24-90.6-112.416-177.284-171.16-257.934-174.605l-7.461-.095z" fill-rule="nonzero"/></svg>