<?xml version="1.0" encoding="UTF-8" standalone="no"?>
<!DOCTYPE svg PUBLIC "-//W3C//DTD SVG 1.1//EN" "http://www.w3.org/Graphics/SVG/1.1/DTD/svg11.dtd">
<svg width="100%" height="100%" viewBox="0 0 8984 8984" version="1.1" xmlns="http://www.w3.org/2000/svg" xmlns:xlink="http://www.w3.org/1999/xlink" xml:space="preserve" xmlns:serif="http://www.serif.com/" style="fill-rule:evenodd;clip-rule:evenodd;stroke-linejoin:round;stroke-miterlimit:1.41421;">
    <g transform="matrix(5.55556,0,0,5.55556,0,0)">
        <g transform="matrix(1,0,0,1,-32,141)">
            <path d="M385,1363C389.964,1515.56 377,1365 377,1365C377.685,1339.18 369.75,1168.51 369,1059C368.25,949.494 382.424,773.729 388,770C388,770 373.918,696.854 373,687C372.082,677.146 341.054,621.978 343,613C344.946,604.022 286.4,642.047 160,579C160,579 121.45,564.017 90,605C90,605 76.507,615.283 59,576L44,572C44,572 45.203,560.022 50,563C54.797,565.978 81.427,571.031 92,568C102.573,564.969 93.784,523.154 97,523C100.216,522.846 91.325,510.555 108,517C108,517 99.461,539.014 142,462C142,462 160.576,441.25 203,435C245.424,428.75 244.572,434.45 261,435C277.428,435.55 269.777,427.069 296,430C322.223,432.931 331.677,432.977 343,428C354.323,423.023 357.225,418.426 365,428C365,428 366.205,432.343 421,427C421,427 437.702,442.511 455,425C455,425 507.657,401.971 519,430C519,430 523.69,439.323 540,431C540,431 560.545,428.887 566,432C571.455,435.113 573.597,426.24 579,423C584.403,419.76 612.478,452.563 610,472C610,472 602.11,480.41 604,488C605.89,495.59 590.922,500.423 553,505L494,529C494,529 498.074,547.931 431,561C431,561 362.053,600.763 356,606C349.947,611.237 364.516,648.71 373,657C373,657 388.132,679.817 400,768C400,768 378.433,886.074 381,1058C383.567,1229.93 380.036,1210.44 385,1363Z" style="fill:url(#_Linear1);"/>
        </g>
        <g transform="matrix(1,0,0,1,-32,141)">
            <path d="M813,1407C807.227,1402.66 768.215,1091.13 776,974L772,828C772,828 764.893,787.195 767,764L762,683C762,683 695.603,701.676 590,677C590,677 531.501,680.859 483,713C483,713 477.858,717.109 475,704C475,704 466.837,693.322 470,688C470,688 480.563,686.276 483,683C483,683 488.839,655.189 487,652C485.161,648.811 501.259,636.789 499,632C499,632 501.894,629.996 494,613C494,613 492.614,608.162 522,590C522,590 528.013,584.853 530,577C531.987,569.147 535.639,555.173 561,551C561,551 565.822,552.661 585,535C585,535 591.356,532.257 608,535C608,535 613.209,538.985 628,523C628,523 634.986,519.327 670,523C670,523 691.507,523.125 719,491C719,491 723.758,486.881 734,490C734,490 751.332,498.356 776,489C776,489 778.613,484.981 793,485C793,485 801.957,483.797 803,493C803,493 801.077,500.716 817,493C832.923,485.284 855.961,470.94 853,482L861,482C861,482 862.829,480.71 873,491L909,489C909,489 914.423,485.62 902,484C889.577,482.38 856.699,473.872 853.672,471.448L842,470C842,470 813.497,456.66 800,456L785,450L733,435C733,435 636.226,430.536 629,437C621.774,443.464 613.258,392.744 638,396C638,396 647.438,375.64 687,380C687,380 698.949,357.877 750,370C801.051,382.123 811.084,342.142 811,342C810.916,341.858 807.511,321.602 875,324C875,324 903.121,328.252 925,298L958,294C958,294 963.091,261.1 1019,276C1019,276 1035.27,289.582 1059,258C1059,258 1096.83,238.315 1113,264C1113,264 1122.81,282.625 1133,273C1143.19,263.375 1176.08,309.706 1167,333C1157.92,356.294 1176.82,293.02 1074,353C1074,353 970.778,456.903 954,470C954,470 957.768,486.082 968,483C978.232,479.918 985.298,494.079 988,488C988,488 989.845,491.134 992,498L982,506L989,520C989,520 989.27,553.155 973,559C973,559 985.77,632.916 984,666C982.23,699.084 979,738 979,738L978,770C978,770 928.754,968.636 995,1369L983,1372C983,1372 916.641,1024.21 966,769C966,769 977.615,563.246 958,568C938.385,572.754 808.112,665.903 775,676C775,676 775.722,804.001 784,814C784,814 788.137,1310.25 824,1402C824,1402 818.773,1411.34 813,1407Z" style="fill:url(#_Linear2);"/>
        </g>
        <g transform="matrix(1,0,0,1,-32,141)">
            <path d="M1145,1352C1145,1352 1117.46,869.553 1157,770C1157,770 1157.67,484.803 1162,476C1162,476 1129.06,427.597 1115,426C1115,426 1101.84,417.647 1106,412C1106,412 1075.61,391.153 1086,391L1103,388L1106,395C1106,395 1116.94,393.494 1134,393C1134,393 1142.23,397.249 1161,420C1169.18,429.922 1185,296 1185,296C1162.56,280.661 1117.08,148.55 987,92C987,92 955.1,79.533 992,41C992,41 995.192,59.649 1019,37C1019,37 1033.71,53.393 1038,42C1038,42 1042.75,73.128 1070,45C1070,45 1099.73,10.439 1123,57C1123,57 1130.65,63.587 1142,54C1142,54 1167.88,47.748 1197,69C1197,69 1213.14,76.368 1225,68C1225,68 1271.12,92.763 1291,102C1291,102 1288.22,141.091 1315,149C1315,149 1326.58,159.59 1345,168C1345,168 1361.44,202.27 1380.56,190.004C1380.56,190.004 1395.1,229.73 1424,220L1437,221C1437,221 1431.18,250.376 1476,251C1476,251 1471.94,271.146 1509,269C1509,269 1515.24,295.883 1526,291C1526,291 1533.97,297.136 1533,347C1533,347 1523.46,359.3 1506,343C1506,343 1498.72,339.744 1486,351C1486,351 1469.24,366.831 1443,331C1443,331 1427.48,322.095 1385,317C1385,317 1290.89,326.631 1211,309C1211,309 1200.04,304.843 1198,315C1195.96,325.157 1182.66,399.265 1184,410C1184,410 1182.73,434.305 1198,408C1198,408 1210.9,395.952 1242,408C1242,408 1265.26,412.847 1274,395C1274,395 1289.74,378.915 1333,384C1333,384 1358.96,408.403 1364,399C1364,399 1361.99,415.446 1386,391C1386,391 1418.92,383.387 1437,393C1437,393 1454.06,390.844 1460,400C1465.94,409.156 1472.52,405.13 1481,405C1489.48,404.87 1498.72,433.89 1510,442C1521.28,450.11 1527.29,448.338 1543,434C1558.71,419.662 1571.25,462.433 1578,468C1584.75,473.567 1594.6,493.266 1614,468C1614,468 1631.98,473.664 1636,488C1640.02,502.336 1633,521.62 1641,528C1649,534.38 1638.38,539.924 1621,542C1603.62,544.076 1608.7,552.494 1611,559C1611,559 1583.2,572.913 1582,582C1580.8,591.087 1585.22,613.841 1560,599C1560,599 1502.01,557.583 1400,605C1400,605 1343.9,617.226 1329,616C1329,616 1323.56,651.533 1323,673C1322.44,694.467 1314.78,759.063 1316,772C1316,772 1300.32,843.312 1302,867L1295,1002L1289,1178C1289,1178 1279.22,1339.15 1273,1351L1263,1348L1277,1178L1281,1002L1288,866C1288,866 1296.54,781.032 1302,771C1302,771 1314.26,614.437 1311,605C1311,605 1254.08,572.151 1245,547C1245,547 1227.9,544.88 1218,546C1208.1,547.12 1200,521 1200,521C1200,521 1175.81,504.018 1177,494C1178.19,483.982 1162.24,586.263 1173,754L1170,781C1170,781 1136.63,894.986 1155,1349L1145,1352Z" style="fill:url(#_Linear3);"/>
        </g>
    </g>
    <defs>
        <linearGradient id="_Linear1" x1="0" y1="0" x2="1" y2="0" gradientUnits="userSpaceOnUse" gradientTransform="matrix(79,374,-374,79,252,428)"><stop offset="0" style="stop-color:rgb(153,199,74);stop-opacity:1"/><stop offset="1" style="stop-color:rgb(95,128,40);stop-opacity:1"/></linearGradient>
        <linearGradient id="_Linear2" x1="0" y1="0" x2="1" y2="0" gradientUnits="userSpaceOnUse" gradientTransform="matrix(39,500,-500,39,746,370)"><stop offset="0" style="stop-color:rgb(153,199,74);stop-opacity:1"/><stop offset="1" style="stop-color:rgb(95,128,40);stop-opacity:1"/></linearGradient>
        <linearGradient id="_Linear3" x1="0" y1="0" x2="1" y2="0" gradientUnits="userSpaceOnUse" gradientTransform="matrix(-65,871,-871,-65,1183,277)"><stop offset="0" style="stop-color:rgb(153,199,74);stop-opacity:1"/><stop offset="1" style="stop-color:rgb(95,128,40);stop-opacity:1"/></linearGradient>
    </defs>
</svg>
