<svg viewBox="0 0 338 240" xmlns="http://www.w3.org/2000/svg" fill-rule="evenodd" clip-rule="evenodd" stroke-linejoin="round" stroke-miterlimit="1.414"><path d="M322 16H114c-8.824.027-15.973 7.176-16 16v144c.027 8.824 7.176 15.973 16 16h48v48l48-48h112c8.824-.027 15.973-7.176 16-16V32c-.027-8.824-7.176-15.973-16-16z" fill="#a2d147" fill-rule="nonzero"/><path d="M33 0c.058-.113 32 48 32 48H1S32.942.113 33 0z" fill="#bcbec0" fill-rule="nonzero"/><path d="M65 192v16c0 17.672-14.328 32-32 32S1 225.672 1 208v-16h64z" fill="#e6e7e8" fill-rule="nonzero"/><path fill="#ff9811" fill-rule="nonzero" d="M1 168h64v24H1z"/><path fill="#00b39d" fill-rule="nonzero" d="M33 48h32v120H33z"/><path fill="#00ccb3" fill-rule="nonzero" d="M1 48h32v120H1z"/><path fill="#53a000" fill-rule="nonzero" d="M138 56h160v16H138zM138 96h160v16H138zM138 136h160v16H138z"/></svg>