<svg xmlns="http://www.w3.org/2000/svg" viewBox="0 0 512 512"><path d="M38.788 170.667h46.546c12.853 0 23.273-10.42 23.273-23.273s-10.42-23.273-23.273-23.273H38.788c-12.853 0-23.273 10.42-23.273 23.273s10.42 23.273 23.273 23.273zm46.545 62.06H38.788c-12.853 0-23.273 10.42-23.273 23.273s10.42 23.273 23.273 23.273h46.546c12.853 0 23.273-10.42 23.273-23.273-.001-12.853-10.421-23.273-23.274-23.273zm0 108.606H38.788c-12.853 0-23.273 10.42-23.273 23.273s10.42 23.273 23.273 23.273h46.546c12.853 0 23.273-10.42 23.273-23.273s-10.421-23.273-23.274-23.273z" data-original="#2E36D2" data-old_color="#458300" fill="#3e7600"/><circle cx="279.273" cy="201.697" r="69.818" data-original="#C9DDF4" class="active-path" data-old_color="#F7F7F8" fill="#fbfbfb"/><path d="M279.273 271.514c-59.982 0-108.606 48.621-108.606 108.606h217.212c0-59.985-48.625-108.606-108.606-108.606z" data-original="#C9DDF4" class="active-path" data-old_color="#F7F7F8" fill="#fbfbfb"/><path d="M473.212 0H162.909C107.301 0 62.061 45.241 62.061 100.848v23.273h23.273c12.853 0 23.273 10.42 23.273 23.273s-10.42 23.273-23.273 23.273H62.061v62.061h23.273c12.853 0 23.273 10.42 23.273 23.273s-10.42 23.273-23.273 23.273H62.061v62.061h23.273c12.853 0 23.273 10.42 23.273 23.273s-10.42 23.273-23.273 23.273H62.061v23.273c0 55.605 45.24 100.846 100.848 100.846h310.303c12.853 0 23.273-10.42 23.273-23.273V23.273C496.485 10.42 486.065 0 473.212 0zM279.273 380.121H170.667c0-59.985 48.624-108.606 108.606-108.606-38.558 0-69.818-31.26-69.818-69.818 0-38.561 31.26-69.818 69.818-69.818 38.558 0 69.818 31.257 69.818 69.818 0 38.558-31.26 69.818-69.818 69.818 59.982 0 108.606 48.621 108.606 108.606H279.273z" data-original="#5286FA" data-old_color="#a2d147" fill="#a2d147"/><path d="M170.667 380.12c0-59.985 48.624-108.606 108.606-108.606-38.558 0-69.818-31.26-69.818-69.818 0-38.56 31.26-69.818 69.818-69.818V0H162.909C107.301 0 62.061 45.241 62.061 100.848v23.273h23.273c12.853 0 23.273 10.42 23.273 23.273s-10.42 23.273-23.273 23.273H62.061v62.061h23.273c12.853 0 23.273 10.42 23.273 23.273s-10.42 23.273-23.273 23.273H62.061v62.061h23.273c12.853 0 23.273 10.42 23.273 23.273s-10.42 23.273-23.273 23.273H62.061v23.273c0 55.605 45.24 100.846 100.848 100.846h116.364V380.12H170.667z" data-original="#3D6DEB" data-old_color="#53a000" fill="#53a000"/></svg>