<?xml version="1.0" encoding="UTF-8" standalone="no"?>
<!DOCTYPE svg PUBLIC "-//W3C//DTD SVG 1.1//EN" "http://www.w3.org/Graphics/SVG/1.1/DTD/svg11.dtd">
<svg width="100%" height="100%" viewBox="0 0 3224 3224" version="1.1" xmlns="http://www.w3.org/2000/svg" xmlns:xlink="http://www.w3.org/1999/xlink" xml:space="preserve" xmlns:serif="http://www.serif.com/" style="fill-rule:evenodd;clip-rule:evenodd;stroke-linejoin:round;stroke-miterlimit:1.41421;">
    <g transform="matrix(1.33333,0,0,1.33333,0,0)">
        <g transform="matrix(1,0,0,1,-534,-428)">
            <path d="M1962.46,2844.28L1519.22,2844.42L1519.22,1742.92L1148.57,1742.92L1148.57,1313.59L1519.22,1313.59L1519.22,996.99C1519.22,629.667 1743.51,429.545 2071.26,429.545C2228.39,429.545 2363.13,441.3 2402.42,446.4L2402.42,830.35L2175.09,830.445C1996.88,830.445 1962.51,915.167 1962.51,1039.42L1962.51,1313.45L2387.67,1313.45L2332.08,1742.74L1962.46,1742.74L1962.46,2844.28Z" style="fill:rgb(49,75,192);fill-rule:nonzero;"/>
        </g>
    </g>
</svg>
