<svg xmlns="http://www.w3.org/2000/svg" height="512" viewBox="0 0 464 464.042" width="512"><path d="M464.02 232.043c0 128.129-103.868 232-232 232-5.598 0-11.118-.16-16.637-.64C89.734 454.366-5.747 346.714.289 220.886 6.32 95.059 111.664-2.961 237.602.067 363.535 3.096 464.043 106.07 464.02 232.042zm0 0" fill="#53a000" data-original="#3D9AE2" data-old_color="#53a000"/><path d="M464.02 232.043c0 128.129-103.868 232-232 232-5.598 0-11.118-.16-16.637-.64l-95.363-95.36 216-264zm0 0" fill="#3b7200" data-original="#286595" data-old_color="#53A000"/><path d="M344.02 179.563v188.48h-224v-188.48l112-43.52zm0 0" fill="#fcfdff" data-original="#D1D3D4" data-old_color="#FAFBFD"/><path d="M360.02 161.8l-25.102-9.757h1.102v-48h-32v35.992l-72-27.992-128 49.758-16 6.242v24l16-6.242 16-6.223 112-43.535 112 43.535 16 6.223 16 6.242v-24zm0 0" fill="#a2d147" data-original="#FF5023" data-old_color="#a2d147"/><path d="M200.02 296.043h64v72h-64zm0 0" fill="#3b7200" data-original="#6D6E71" data-old_color="#3D3B3B"/><path d="M160.02 200.043h32v48h-32zm112 0h32v48h-32zm0 0" data-original="#000000" class="active-path" data-old_color="#FCF9F9" fill="#fcfdff"/></svg>