<svg xmlns="http://www.w3.org/2000/svg" viewBox="0 0 512 512"><path data-original="#DCA700" fill="#dca700" d="M330.424 46.523l-26.047-15.129-50.047 8.281 26.048 15.129z"/><path data-original="#FF9F2C" class="active-path" data-old_color="#53a000" fill="#53a000" d="M330.424 46.524l-26.047-15.13-37.129 6.144-17.04-22.409L224.161 0l-30.169 74.511-50.047 49.509 31.402 37.769-.762 70.273 26.047 15.129 49.576-51.168 49.577-6.077-.762-69.394z"/><path data-original="#FFD800" data-old_color="#a2d147" fill="#a2d147" d="M250.208 15.129l30.17 39.675 50.046-8.281-31.401 74.029.762 69.394-49.577 6.077-49.576 51.168.762-70.272-31.401-37.77 50.047-49.508z"/><path data-original="#CC8200" data-old_color="#027011" fill="#071" d="M250.208 15.129L224.161 0l-30.169 74.511 26.048 15.13zm-48.814 161.79l-26.047-15.13-31.402-37.769 26.048 15.129z"/><path data-original="#DCA700" fill="#dca700" d="M249.894 311.332l-26.047-15.129-50.047 8.281 26.047 15.129z"/><path data-original="#FF9F2C" class="active-path" data-old_color="#53a000" fill="#53a000" d="M249.894 311.332l-26.047-15.129-37.13 6.143-17.039-22.408-26.047-15.129-30.169 74.511-50.047 49.508 31.401 37.77-.761 70.273L120.102 512l49.576-51.168 49.576-6.078-.762-69.393z"/><path data-original="#FFD800" data-old_color="#a2d147" fill="#a2d147" d="M169.678 279.938l30.169 39.675 50.047-8.281-31.402 74.029.762 69.393-49.576 6.078L120.102 512l.761-70.273-31.401-37.77 50.047-49.508z"/><path data-original="#CC8200" data-old_color="#027011" fill="#071" d="M169.678 279.938l-26.047-15.129-30.169 74.511 26.047 15.129zm-48.815 161.789l-26.047-15.129-31.401-37.77 26.047 15.129z"/><path data-original="#DCA700" fill="#dca700" d="M448.585 196.932l-26.047-15.129-50.047 8.28 26.047 15.129z"/><path data-original="#FF9F2C" class="active-path" data-old_color="#53a000" fill="#53a000" d="M448.585 196.932l-26.047-15.129-37.129 6.143-17.04-22.409-26.047-15.129-30.169 74.511-50.047 49.509 31.402 37.769-.762 70.273 26.047 15.13 49.576-51.169 49.576-6.077-.761-69.393z"/><path data-original="#FFD800" data-old_color="#a2d147" fill="#a2d147" d="M368.369 165.537l30.169 39.675 50.047-8.28-31.401 74.029.761 69.393-49.576 6.077-49.576 51.169.762-70.273-31.402-37.77 50.047-49.508z"/><path data-original="#CC8200" data-old_color="#027011" fill="#071" d="M368.369 165.537l-26.047-15.129-30.169 74.511 26.047 15.13zm-48.814 161.79l-26.047-15.129-31.402-37.77 26.047 15.129z"/></svg>